<svg version="1.1" xmlns="http://www.w3.org/2000/svg" xmlns:xlink="http://www.w3.org/1999/xlink" width="230.57921" height="299.04792" viewBox="0,0,230.57921,299.04792"><g transform="translate(-202.98407,-29.97137)"><g fill="#ffffff" stroke="#e6e6e6" stroke-width="10" stroke-miterlimit="10"><path d="M214.54041,324.01929c-8.7122,-0.90809 -8.51468,-15.29836 -0.75587,-19.36361c6.4448,-3.37654 48.28922,-25.2991 48.28922,-25.2991l118.4256,0.15353c0,0 41.59847,21.74528 48.06391,25.12513c0,0 8.9651,17.98195 -1.99729,18.9748c-32.37796,2.93246 -212.02558,0.40924 -212.02558,0.40924z"/><g><path d="M238.7043,201.99617c0,-44.74265 37.54721,-125.04125 82.28975,-125.04125c18.95255,0 48.86055,33.58706 48.86055,33.58706c0,0 -66.59091,78.65569 -57.96056,98.28136c8.63036,19.62567 68.94791,-77.23014 68.94791,-77.23014c0,0 19.88964,52.85634 19.88964,70.40297c0,44.74265 -36.27105,81.0137 -81.0137,81.0137c-44.74265,0 -81.0136,-36.27105 -81.0136,-81.0137z"/><path d="M299.86219,56.94709c0,-12.13686 9.83886,-21.97572 21.97562,-21.97572c12.13686,0 21.97572,9.83886 21.97572,21.97572c0,12.13686 -9.83886,21.97562 -21.97572,21.97562c-12.13686,0 -21.97562,-9.83886 -21.97562,-21.97562z"/></g></g></g></svg>