<svg version="1.1" xmlns="http://www.w3.org/2000/svg" xmlns:xlink="http://www.w3.org/1999/xlink" width="221.07635" height="299.23124" viewBox="0,0,221.07635,299.23124"><g transform="translate(-209.48792,-29.13438)"><g fill="#ffffff" stroke-miterlimit="10"><g><path d="M293.57857,135.89293l5.54961,-52.92362l-3.5456,-46.33493h49.19811l-4.65821,46.80113l6.29885,52.45732z" stroke="#e6e6e6" stroke-width="15"/><path d="M368.74123,110.03548l-50.38883,-5.16997l-47.75335,2.64046l0.61387,-41.95345l48.13086,4.3591l50.05657,-3.115z" stroke="#e6e6e6" stroke-width="10"/><path d="M293.57837,135.89293l5.54982,-52.92342l-3.5456,-46.33493h49.19811l-4.658,46.80113l6.29885,52.45732z" stroke="none" stroke-width="0"/></g><path d="M275.93194,169.25927v-31.17753h88.13644v31.17753z" stroke="#e6e6e6" stroke-width="10"/><g stroke="#e6e6e6" stroke-width="10"><path d="M260.85661,303.55052v-20.68261h118.28719v20.68261z"/><path d="M244.03162,323.36562v-23.06902h151.93717v23.06902z"/></g><path d="M243.08662,279.34133c0,0 -28.14074,-110.71678 -31.32164,-123.23149c-0.57563,-2.26468 0.65455,-3.97966 2.72294,-3.97966c15.28056,0 182.78245,0 211.07635,0c2.41428,0 3.32633,2.36465 2.53337,4.96433c-4.16902,13.6686 -37.28558,122.24682 -37.28558,122.24682z" stroke="#e6e6e6" stroke-width="10"/></g></g></svg>