<svg version="1.1" xmlns="http://www.w3.org/2000/svg" xmlns:xlink="http://www.w3.org/1999/xlink" width="210.57259" height="299.6139" viewBox="0,0,210.57259,299.6139"><g transform="translate(-214.71371,-32.69305)"><g stroke-miterlimit="10"><path d="" fill="#ffffff" stroke="#f5f5f5" stroke-width="1"/><path d="" fill="#ffffff" stroke="#f5f5f5" stroke-width="1"/><path d="" fill="#ffffff" stroke="#f5f5f5" stroke-width="1"/><path d="" fill="#ffffff" stroke="#f5f5f5" stroke-width="1"/><path d="" fill="#ffffff" stroke="#f5f5f5" stroke-width="1"/><path d="" fill="#ffffff" stroke="#f5f5f5" stroke-width="1"/><g><path d="M225.48964,204.23432c-4.2088,-4.9905 -5.48822,-10.45809 -6.69261,-16.08684c-3.13446,-14.64879 1.94573,-30.38991 14.66038,-41.65879c4.23127,-3.75013 18.16851,-25.0418 18.16851,-25.0418c0,0 0.69019,-36.8753 29.57953,-51.18397c-0.93901,-6.46505 2.04324,-26.44324 5.97059,-31.2431c2.11919,-2.58997 8.2122,5.06514 11.06074,8.51744c5.95117,7.21331 17.64608,16.62644 23.49313,17.43418c26.70852,3.68993 38.89404,10.66765 59.86868,27.6092c22.65001,28.28953 32.91541,55.54244 32.91541,55.54244l3.0825,63.84525c0,0 -19.51759,90.65382 -36.54526,90.55976c-95.27137,-0.52639 -130.52092,-1.1087 -130.52092,-1.1087c0,0 -6.698,-6.71274 -8.88135,-12.92136c-4.67093,-57.7746 46.02468,-50.14177 76.34667,-84.7359c11.00065,-8.32283 19.57005,-44.51058 19.19628,-57.76067c0,0 -18.47141,20.42598 -30.57538,30.73329c-6.05397,5.15533 -17.89539,7.16766 -23.6305,12.603c-6.61178,6.26607 -17.50078,16.7148 -28.45049,17.31979c-8.53636,0.47159 -22.84056,3.60279 -29.04592,-2.42331z" fill="#404040" stroke="none" stroke-width="0.25"/><g stroke="none" stroke-width="0.5"><path d="M274.63699,294.0383c25.0052,0 49.7202,2.10842 74.51228,0.02227c11.47518,-0.94765 22.96938,-1.21893 34.48625,-1.21354c2.10577,0.00091 -1.09579,-5.84481 2.00288,-5.8316c-3.78622,-5.00982 22.34283,-148.42263 -9.91929,-188.79752c-7.55109,-5.97039 -15.79522,-15.51723 -25.74227,-17.26773c-12.65496,-2.22717 -19.04132,-3.49247 -31.23639,-7.7276c-5.75198,-1.99748 -16.5266,-8.24484 -18.99455,-13.81136c-0.62665,-1.41364 -5.97699,-3.85597 -6.95616,-6.1768c-1.62747,8.41231 -2.44009,21.02355 -5.6378,23.87778c-25.36392,12.79427 -12.86107,36.12064 -23.25764,55.63629c-7.90341,14.83567 -57.47414,36.1909 -31.74183,62.63232c11.2038,11.72257 33.35965,5.40485 44.71506,-6.171c5.35502,-5.45894 15.60945,-10.25433 21.56581,-15.56766c14.68244,-13.09737 9.46936,-24.10473 18.81549,-29.27012c6.40893,-3.54209 14.02458,-6.7765 21.11964,-8.0728c0,0 6.34853,-1.15426 7.50279,5.19416c0.08399,0.46223 0.12821,0.89692 0.13808,1.30556c1.75284,1.90729 1.75284,4.61378 1.75284,4.61378v4.16935c-0.31592,17.10362 -11.09124,48.69508 -24.67555,59.5068c-27.22648,30.24685 -77.24867,26.95581 -72.99137,77.54933zM222.3075,204.23422c-4.2088,-4.9905 -5.48833,-10.45809 -6.69271,-16.08684c-3.13446,-14.64879 1.94573,-30.38991 14.66048,-41.65869c4.23127,-3.75013 19.76944,-25.0419 19.76944,-25.0419c0,0 0.52751,-40.71206 29.41675,-55.02073c-0.93901,-6.46505 0.29924,-28.536 4.22659,-33.33586c2.11919,-2.58997 13.79295,8.20427 16.64129,11.65658c5.95117,7.21331 15.55333,15.23121 21.40048,16.03905c26.70852,3.68993 41.68442,11.36527 62.65906,28.30692c21.01278,26.24466 40.2246,49.22991 40.8907,101.17221c0.54002,42.11065 -31.6306,107.59587 -32.17906,109.16427c-2.50232,-0.01332 -1.24658,-0.02674 -3.67823,-0.04016c-95.27137,-0.52639 -136.45054,-1.1087 -136.45054,-1.1087l-10.39728,4.11688c0,0 -0.99931,0.82268 -5.80872,-12.85273c-4.67093,-57.7746 46.7222,-53.2808 77.04429,-87.87503c11.00065,-8.32283 20.96529,-36.83697 20.59152,-50.08717c0,0 -15.33217,19.72836 -27.43614,30.03567c-6.05397,5.15533 -16.65298,8.64892 -22.38808,14.08427c-6.61178,6.26607 -16.44007,17.77562 -27.38977,18.38051c-8.53636,0.47159 -28.67459,-3.82232 -34.87995,-9.84842z" fill="#262626"/><path d="M249.75919,288.07097c-4.2573,-50.59352 45.92402,-47.30899 73.1504,-77.55594c13.58431,-10.81173 24.18506,-41.76301 24.50097,-58.86663l0.01759,-4.14607c0,0 0.02583,-2.67761 -1.72702,-4.5849c-0.00987,-0.40865 -0.04819,-0.83743 -0.13228,-1.29956c-1.15426,-6.34843 -7.44545,-5.14669 -7.44545,-5.14669c0,0 -23.49537,23.11306 -39.36044,37.26545c-5.95636,5.31333 -16.11286,9.7867 -21.46789,15.24564c-5.72859,5.83993 -12.92004,10.68829 -20.12084,12.69045c-7.48123,2.08005 -19.57503,-0.26569 -25.4472,-6.40994c-3.83685,-3.9426 -7.52658,-11.21346 -7.52658,-11.21346c0,0 0.28348,-15.28194 7.4852,-23.61311c9.41018,-10.88595 24.78994,-31.04676 24.78994,-31.04676c0,0 5.22365,-40.08561 30.58758,-52.87998c3.20197,-2.85799 -1.67781,-29.1112 1.68848,-30.15392c2.0892,-0.64719 3.49074,3.02108 6.46597,6.22122c6.55779,7.05367 18.01721,18.10953 23.56349,20.03564c12.19507,4.23513 18.70751,5.53205 31.36247,7.75922c9.94705,1.75061 18.29886,11.36273 25.84985,17.33302c20.96966,26.24283 31.84026,52.99467 34.92408,80.62512c4.40392,39.45805 -6.1771,71.37325 -26.79821,115.49104c-30.16286,2.36617 -77.93022,1.56301 -77.93022,1.56301l-53.73917,-0.2303l-2.69053,-7.08265z" fill="#404040"/></g><path d="M225.23972,327.30695v-27.57971h187.20766v27.57971z" fill="#404040" stroke="#262626" stroke-width="10"/><path d="M298.33795,106.88128c1.51339,4.54017 -1.72275,8.30127 -5.89301,10.51594c-0.90799,2.46419 -3.27701,4.2215 -6.05641,4.2215c-2.28788,0 -4.29767,-1.19076 -5.44349,-2.98631c-0.92131,-0.68288 -1.34755,-1.76342 -1.00692,-3.29633c-0.00143,-0.05643 -0.00224,-0.11307 -0.00224,-0.16991c0,-2.18386 1.08491,-4.11434 2.74502,-5.28182c4.24591,-6.24238 12.15542,-13.50785 15.65704,-3.00309z" fill="#262626" stroke="none" stroke-width="0.5"/></g></g></g></svg>