<svg version="1.1" xmlns="http://www.w3.org/2000/svg" xmlns:xlink="http://www.w3.org/1999/xlink" width="210.84603" height="299.99648" viewBox="0,0,210.84603,299.99648"><g transform="translate(-214.57698,-32.50176)"><g stroke-miterlimit="10"><path d="" fill="#ffffff" stroke="#f5f5f5" stroke-width="1"/><path d="" fill="#ffffff" stroke="#f5f5f5" stroke-width="1"/><path d="" fill="#ffffff" stroke="#f5f5f5" stroke-width="1"/><path d="" fill="#ffffff" stroke="#f5f5f5" stroke-width="1"/><path d="" fill="#ffffff" stroke="#f5f5f5" stroke-width="1"/><path d="" fill="#ffffff" stroke="#f5f5f5" stroke-width="1"/><g><path d="M225.36692,204.26578c-4.21427,-4.99699 -5.49534,-10.47166 -6.70129,-16.10772c-3.13853,-14.66781 1.94826,-30.42937 14.67942,-41.71289c4.23676,-3.755 18.1921,-25.07433 18.1921,-25.07433c0,0 0.69109,-36.92319 29.61794,-51.25044c-0.94023,-6.47345 2.0459,-26.47759 5.97835,-31.28368c2.12194,-2.59333 8.22286,5.07172 11.07511,8.52851c5.9589,7.22268 17.669,16.64803 23.52364,17.45682c26.74321,3.69472 38.94454,10.68151 59.94643,27.64506c22.67943,28.32627 32.95816,55.61457 32.95816,55.61457l3.08651,63.92816c0,0 -19.54293,90.77154 -36.59271,90.67737c-95.39509,-0.52708 -130.69043,-1.11015 -130.69043,-1.11015c0,0 -6.7067,-6.72146 -8.89289,-12.93814c-4.677,-57.84963 46.08445,-50.20687 76.44582,-84.84594c11.01493,-8.33364 19.59546,-44.56839 19.22121,-57.83568c0,0 -18.49539,20.45251 -30.61508,30.77319c-6.06182,5.16202 -17.91864,7.17696 -23.66119,12.61937c-6.62037,6.27421 -17.52351,16.73651 -28.48743,17.34228c-8.54744,0.47219 -22.87021,3.60747 -29.08364,-2.42647z" fill="#ffffff" stroke="none" stroke-width="0.25"/><path d="M300.10465,103.19718c1.51536,4.54607 -1.72508,8.31205 -5.90076,10.5295c-0.90918,2.46738 -3.28127,4.22699 -6.06427,4.22699c-2.29085,0 -4.30324,-1.1923 -5.45055,-2.99019c-0.92251,-0.68376 -1.34931,-1.76561 -1.00824,-3.30051c-0.00142,-0.05651 -0.00224,-0.11331 -0.00224,-0.17022c0,-2.1867 1.08632,-4.11958 2.74859,-5.28857c4.25142,-6.25048 12.1712,-13.52539 15.67737,-3.00699z" fill="#f5f5f5" stroke="none" stroke-width="0.5"/><path d="M225.11667,327.49824v-27.61553h187.45077v27.61553z" fill="#ffffff" stroke="#e6e6e6" stroke-width="10"/><g stroke="none" stroke-width="0.5"><path d="M274.57809,294.18639c25.03766,0 49.78476,2.11116 74.60904,0.0223c11.49009,-0.94888 22.99921,-1.22052 34.53104,-1.21512c2.10851,0.00092 -1.09721,-5.8524 2.00547,-5.83917c-3.79113,-5.01633 22.37185,-148.61538 -9.93217,-189.0427c-7.56089,-5.97814 -15.81574,-15.53737 -25.7757,-17.29015c-12.6714,-2.23006 -19.06604,-3.49701 -31.27696,-7.73764c-5.75944,-2.00008 -16.54806,-8.25556 -19.01922,-13.8293c-0.62747,-1.41548 -5.98476,-3.86098 -6.9652,-6.18481c-1.62959,8.42323 -2.44325,21.05085 -5.64511,23.90878c-25.39687,12.81088 -12.87777,36.16754 -23.28784,55.70855c-7.91367,14.85494 -57.54877,36.23791 -31.78306,62.71365c11.21835,11.73779 33.40297,5.41187 44.77312,-6.17902c5.36198,-5.46602 15.62972,-10.26764 21.59381,-15.58787c14.70151,-13.11439 9.48166,-24.13603 18.83992,-29.30814c6.41725,-3.54669 14.04279,-6.7853 21.14707,-8.08329c0,0 6.35678,-1.15576 7.51253,5.20092c0.08409,0.46283 0.12838,0.89808 0.13827,1.30726c1.75512,1.90977 1.75512,4.61977 1.75512,4.61977v4.17476c-0.31633,17.12583 -11.10565,48.75831 -24.7076,59.58408c-27.26183,30.28613 -77.34898,26.99081 -73.08615,77.65004zM222.18064,204.26568c-4.21427,-4.99699 -5.49545,-10.47167 -6.7014,-16.10772c-3.13853,-14.66781 1.94825,-30.42937 14.67952,-41.71278c4.23676,-3.755 19.79511,-25.07443 19.79511,-25.07443c0,0 0.52819,-40.76494 29.45495,-55.09218c-0.94023,-6.47345 0.29963,-28.57306 4.23208,-33.37914c2.12194,-2.59333 13.81086,8.21493 16.66289,11.67172c5.9589,7.22268 15.57353,15.25098 21.42827,16.05988c26.74321,3.69472 41.73854,11.38003 62.74042,28.34368c21.04006,26.27875 40.27684,49.29384 40.9438,101.30359c0.54072,42.16533 -31.67167,107.7356 -32.22084,109.30603c-2.50557,-0.01334 -1.24821,-0.02677 -3.68301,-0.04021c-95.39509,-0.52708 -136.62773,-1.11014 -136.62773,-1.11014l-10.41079,4.12222c0,0 -1.0006,0.82376 -5.81626,-12.86942c-4.677,-57.84963 46.78288,-53.35 77.14435,-87.98916c11.01494,-8.33364 20.99251,-36.88481 20.61826,-50.15221c0,0 -15.35208,19.75399 -27.47177,30.07467c-6.06182,5.16202 -16.67461,8.66015 -22.41716,14.10256c-6.62037,6.27421 -16.46141,17.79871 -27.42533,18.40437c-8.54744,0.47219 -28.71182,-3.82728 -34.92525,-9.86122z" fill="#e6e6e6"/><path d="M249.66798,288.21131c-4.26283,-50.65923 45.98365,-47.37042 73.2454,-77.65665c13.60195,-10.82577 24.21646,-41.81725 24.53279,-58.94308l0.01762,-4.15144c0,0 0.02586,-2.68109 -1.72926,-4.59086c-0.00988,-0.40918 -0.04826,-0.83852 -0.13246,-1.30125c-1.15576,-6.35668 -7.45511,-5.15337 -7.45511,-5.15337c0,0 -23.52588,23.14307 -39.41155,37.31384c-5.96408,5.32024 -16.13378,9.79942 -21.49577,15.26544c-5.73604,5.84752 -12.93682,10.70216 -20.14698,12.70693c-7.49095,2.08275 -19.60045,-0.26603 -25.48024,-6.41827c-3.84185,-3.94773 -7.53636,-11.22802 -7.53636,-11.22802c0,0 0.28384,-15.30179 7.49491,-23.64378c9.42241,-10.90009 24.82214,-31.08707 24.82214,-31.08707c0,0 5.23044,-40.13766 30.6273,-52.94864c3.20614,-2.8617 -1.67998,-29.14901 1.69067,-30.19308c2.09191,-0.64803 3.49528,3.02501 6.47437,6.22931c6.5663,7.06284 18.0406,18.13305 23.59409,20.06166c12.2109,4.24063 18.73181,5.53924 31.40321,7.7693c9.95997,1.75288 18.32262,11.37748 25.88341,17.35551c20.99689,26.27691 31.88162,53.06349 34.96945,80.72983c4.40964,39.50929 -6.18512,71.46594 -26.83301,115.64102c-30.20204,2.36924 -78.03143,1.56504 -78.03143,1.56504l-53.80895,-0.2306l-2.69402,-7.09185z" fill="#ffffff"/></g><path d="M298.30982,106.78633c1.51536,4.54607 -1.72498,8.31205 -5.90066,10.5296c-0.90918,2.46738 -3.28127,4.22699 -6.06427,4.22699c-2.29085,0 -4.30325,-1.1923 -5.45055,-2.99019c-0.92251,-0.68376 -1.3493,-1.76571 -1.00823,-3.30061c-0.00142,-0.05651 -0.00224,-0.11321 -0.00224,-0.17012c0,-2.1867 1.08632,-4.11968 2.74859,-5.28867c4.25142,-6.25048 12.1712,-13.52539 15.67737,-3.00699z" fill="#e6e6e6" stroke="none" stroke-width="0.5"/></g></g></g></svg>