<svg version="1.1" xmlns="http://www.w3.org/2000/svg" xmlns:xlink="http://www.w3.org/1999/xlink" width="193.99781" height="299.35784" viewBox="0,0,193.99781,299.35784"><g transform="translate(-223.00109,-30.32108)"><g fill="#ffffff" stroke="#e6e6e6" stroke-width="10" stroke-miterlimit="10"><path d="M273.81629,275.03739c0,0 14.07674,-50.41034 15.12816,-84.24352c1.07778,-34.68006 -8.73844,-121.35896 -8.73844,-121.35896h79.58807c0,0 -8.67474,86.43179 -7.54311,122.84612c0.97459,31.36261 13.93262,82.75626 13.93262,82.75626z"/><path d="M267.07452,88.2465c0,-29.22993 23.6956,-52.92543 52.92543,-52.92543c29.22994,0 52.92543,23.6956 52.92543,52.92543c0,29.22994 -23.6956,52.92543 -52.92543,52.92543c-29.22994,0 -52.92543,-23.6956 -52.92543,-52.92542z"/><path d="M246.63503,315.88356c0,0 5.08556,-25.76867 5.08556,-36.075c0,-9.99274 5.99737,-16.97044 15.99022,-16.97044c31.03724,0 88.20269,0 105.30002,0c10.50901,0 15.74115,8.92563 15.74115,19.43476c0,10.24262 4.61289,33.61079 4.61289,33.61079z"/><path d="M248.62861,151.10241v-20.73357h142.74268v20.73357z"/><path d="M228.00109,324.67892v-27.10679h183.99781v27.10679z"/></g></g></svg>