<svg version="1.1" xmlns="http://www.w3.org/2000/svg" xmlns:xlink="http://www.w3.org/1999/xlink" width="270.10544" height="299.32686" viewBox="0,0,270.10544,299.32686"><g transform="translate(-184.94729,-30.33657)"><g fill="#404040" stroke="#262626" stroke-width="10" stroke-miterlimit="10"><g><path d="M265.01079,306.63138v-18.82161h107.6442v18.82161z"/><path d="M249.69991,324.66343v-20.9934h138.26646v20.9934z"/></g><path d="M395.30776,164.9272c0,32.49316 -33.71643,58.83415 -75.30769,58.83415c-41.59136,0 -75.30769,-26.34098 -75.30769,-58.83415c0,-32.49316 33.71642,-58.83415 75.30769,-58.83415c41.59136,0 75.30769,26.34099 75.30769,58.83415z"/><path d="M209.67457,239.18221c-7.16671,-46.90099 -0.3745,-141.45868 -0.42177,-159.32316c-0.01031,-3.89055 1.69883,-4.39285 2.56412,-0.64473c3.96376,17.16836 58.75462,100.72179 58.75462,100.72179l48.82678,-113.35396l48.98924,114.00922l62.92101,-102.07967c0,0 2.30419,-1.5584 2.30419,2.40416c0,15.81468 0,81.49112 0,134.02685c0,63.98101 -64.02238,70.10443 -117.10989,70.10443c-35.76071,0 -100.35069,-3.47237 -106.82849,-45.86482z"/><path d="M302.00579,53.33076c0,-9.93785 8.05623,-17.99419 17.99419,-17.99419c9.93786,0 17.99428,8.05623 17.99428,17.99419c0,9.93785 -8.05623,17.99419 -17.99428,17.99419c-9.93786,0 -17.99419,-8.05623 -17.99419,-17.99419z"/><path d="M189.9473,68.27185c0,-9.93785 8.05623,-17.99429 17.99409,-17.99429c9.93786,0 17.99419,8.05624 17.99419,17.99429c0,9.93785 -8.05624,17.99408 -17.99419,17.99408c-9.93786,0 -17.99409,-8.05623 -17.99409,-17.99408z"/><path d="M414.06447,68.27185c0,-9.93785 8.05623,-17.99429 17.99408,-17.99429c9.93786,0 17.99419,8.05624 17.99419,17.99429c0,9.93785 -8.05624,17.99408 -17.99419,17.99408c-9.93786,0 -17.99408,-8.05623 -17.99408,-17.99408z"/><path d="M302.00586,238.11019c0,-9.93786 8.05623,-17.99418 17.99419,-17.99418c9.93786,0 17.99428,8.05623 17.99428,17.99418c0,9.93786 -8.05623,17.99419 -17.99428,17.99419c-9.93786,0 -17.99419,-8.05623 -17.99419,-17.99419z"/></g></g></svg>