<svg version="1.1" xmlns="http://www.w3.org/2000/svg" xmlns:xlink="http://www.w3.org/1999/xlink" width="270.10545" height="299.32686" viewBox="0,0,270.10545,299.32686"><g transform="translate(-184.94728,-30.33657)"><g fill="#ffffff" stroke="#e6e6e6" stroke-width="10" stroke-miterlimit="10"><g><path d="M265.01078,306.63138v-18.82161h107.6442v18.82161z"/><path d="M249.6999,324.66343v-20.9934h138.26646v20.9934z"/></g><path d="M395.30774,164.9272c0,32.49316 -33.71642,58.83415 -75.30769,58.83415c-41.59137,0 -75.30769,-26.34099 -75.30769,-58.83415c0,-32.49316 33.71642,-58.83415 75.30769,-58.83415c41.59137,0 75.30769,26.34099 75.30769,58.83415z"/><path d="M209.67454,239.18221c-7.1667,-46.90099 -0.3745,-141.45868 -0.42178,-159.32316c-0.01032,-3.89055 1.69883,-4.39285 2.56412,-0.64473c3.96376,17.16836 58.75462,100.72179 58.75462,100.72179l48.82678,-113.35397l48.98924,114.00922l62.92101,-102.07967c0,0 2.3042,-1.5584 2.3042,2.40416c0,15.81469 0,81.49112 0,134.02685c0,63.98101 -64.02238,70.10444 -117.1099,70.10444c-35.76071,0 -100.35069,-3.47237 -106.82849,-45.86483z"/><path d="M302.00576,53.33076c0,-9.93785 8.05623,-17.99419 17.99419,-17.99419c9.93785,0 17.99429,8.05623 17.99429,17.99419c0,9.93785 -8.05623,17.99419 -17.99429,17.99419c-9.93785,0 -17.99419,-8.05623 -17.99419,-17.99419z"/><path d="M189.94728,68.27184c0,-9.93785 8.05623,-17.99429 17.99409,-17.99429c9.93785,0 17.99419,8.05623 17.99419,17.99429c0,9.93785 -8.05623,17.99409 -17.99419,17.99409c-9.93785,0 -17.99409,-8.05623 -17.99409,-17.99409z"/><path d="M414.06445,68.27184c0,-9.93785 8.05623,-17.99429 17.99409,-17.99429c9.93785,0 17.99419,8.05623 17.99419,17.99429c0,9.93785 -8.05623,17.99409 -17.99419,17.99409c-9.93785,0 -17.99409,-8.05623 -17.99409,-17.99409z"/><path d="M302.00586,238.11018c0,-9.93785 8.05623,-17.99419 17.99419,-17.99419c9.93785,0 17.99429,8.05623 17.99429,17.99419c0,9.93785 -8.05623,17.99419 -17.99429,17.99419c-9.93785,0 -17.99419,-8.05623 -17.99419,-17.99419z"/></g></g></svg>