<svg version="1.1" xmlns="http://www.w3.org/2000/svg" xmlns:xlink="http://www.w3.org/1999/xlink" width="232.38036" height="299.92955" viewBox="0,0,232.38036,299.92955"><g transform="translate(-203.76689,-27.39133)"><g fill="#ffffff" stroke="#e6e6e6" stroke-miterlimit="10"><path d="M232.38916,288.09953l16.54816,-194.92767h142.12535l16.54816,194.92767z" stroke-width="10"/><path d="M233.38845,122.69151l-3.54173,-48.9778h178.86228l-6.38879,48.90478l-5.08863,6.36243c0,0 -48.71419,0.52772 -79.70298,0.63872c-30.40703,0.10888 -77.86268,0.02111 -77.86268,0.02111z" stroke-width="20"/><path d="M240.46705,128.77811l-7.46008,-7.73167l-9.3731,-83.0016l37.68501,-0.06444l3.56304,88.4614z" stroke-width="20"/><path d="M292.79509,128.68539l3.26489,-90.58783h47.25223l1.50771,90.58783z" stroke-width="20"/><path d="M374.7156,98.20594l1.62639,-60.52682l36.9256,1.07635l-2.79716,22.73778z" stroke-width="20"/><path d="M239.52393,130.87737l-6.35121,-7.85519l-9.53904,-84.97421l40.19615,0.35067l1.36631,92.0305z" stroke-width="0"/><path d="M209.89459,322.32088c0,0 4.52162,-22.07977 7.63239,-30.91061c2.94291,-8.35483 9.00092,-14.54101 23.99805,-14.54101c46.58049,0 132.3737,0 158.03318,0c15.77189,0 20.51065,7.86862 23.62405,16.6525c3.11077,8.7763 6.92317,28.79913 6.92317,28.79913z" stroke-width="10"/><path d="M292.79509,128.68539v-90.58783h52.02484v90.58783z" stroke-width="0"/><path d="M372.99387,130.2434v-92.14584l43.37236,0.70144l-12.81838,84.25197l-5.24881,7.32646z" stroke-width="0"/><path d="M229.84651,73.19235h178.86228l-10.87142,56.63746l-158.17165,0.70144z" stroke-width="0"/></g></g></svg>